<?xml version="1.0" encoding="utf-8"?>
<!-- Generator: Adobe Illustrator 16.0.0, SVG Export Plug-In . SVG Version: 6.00 Build 0)  -->
<!DOCTYPE svg PUBLIC "-//W3C//DTD SVG 1.1//EN" "http://www.w3.org/Graphics/SVG/1.1/DTD/svg11.dtd">
<svg version="1.1"
	 id="svg2" xmlns:dc="http://purl.org/dc/elements/1.1/" xmlns:cc="http://creativecommons.org/ns#" xmlns:rdf="http://www.w3.org/1999/02/22-rdf-syntax-ns#" xmlns:svg="http://www.w3.org/2000/svg" xmlns:sodipodi="http://sodipodi.sourceforge.net/DTD/sodipodi-0.dtd" xmlns:inkscape="http://www.inkscape.org/namespaces/inkscape" sodipodi:docname="Nuevo documento 1" inkscape:version="0.48.3.1 r9886"
	 xmlns="http://www.w3.org/2000/svg" xmlns:xlink="http://www.w3.org/1999/xlink" x="0px" y="0px" width="700px" height="700px"
	 viewBox="0 0 700 700" enable-background="new 0 0 700 700" xml:space="preserve">
<sodipodi:namedview  width="600px" showgrid="false" inkscape:cy="405.71429" inkscape:cx="350" inkscape:zoom="0.35" borderopacity="1.0" bordercolor="#666666" pagecolor="#ffffff" id="base" inkscape:window-maximized="1" inkscape:window-y="25" inkscape:window-x="0" inkscape:current-layer="layer1" inkscape:pageshadow="2" inkscape:document-units="px" inkscape:pageopacity="0.0" inkscape:window-width="1280" inkscape:window-height="719">
	</sodipodi:namedview>
<g id="layer1" transform="translate(0,-352.362)" inkscape:label="Capa 1" inkscape:groupmode="layer">
	<path id="path2998" inkscape:connector-curvature="0" fill="#FFFFFF" d="M368.929,1045.347c-2.75-0.432-9.95-1.497-16-2.367
		c-16.193-2.329-35.116-5.955-60.092-11.516c-6.992-1.557-22.519-7.119-31.408-11.252c-4.675-2.173-13.9-5.944-20.5-8.38
		c-18.017-6.649-21.963-8.214-34.5-13.669c-14.437-6.282-32.205-15.152-42.122-21.028c-11.853-7.022-32.96-21.96-40.418-28.604
		c-2.222-1.979-6.667-5.832-9.879-8.562c-8.747-7.435-26.898-28.479-39.153-45.395c-3.444-4.753-7.119-9.768-8.167-11.143
		c-1.049-1.375-4.39-6.55-7.424-11.5c-19.367-31.588-30.25-59.323-36.884-94c-1.7-8.885-1.767-43.675-0.108-55.999
		c0.667-4.951,1.694-12.601,2.284-17c3.431-25.607,7.25-42.085,20.277-87.5c0.868-3.025,3.638-13.825,6.156-24
		c2.519-10.175,6.158-23.225,8.087-29c3.762-11.261,15.68-36.6,22.302-47.419c2.227-3.639,4.05-6.826,4.05-7.081
		c0-0.989,15.547-24.333,20.313-30.5c14.839-19.204,47.736-47.321,76.188-65.118c24.322-15.214,45.923-22.346,132.5-43.745
		c4.675-1.155,13.675-3.467,20-5.136c9.8-2.587,12.608-2.946,19-2.433c8.748,0.704,30.99,4.69,32.961,5.908
		c0.455,0.281,5.487,1.461,11.184,2.623c5.695,1.161,12.245,2.496,14.555,2.966c11.258,2.292,45.147,10.625,57.301,14.089
		c25.802,7.355,57.371,20.648,77.5,32.632c15.376,9.155,32.313,24.18,46.997,41.692c16.381,19.536,22.567,28.313,32.085,45.516
		c4.342,7.848,7.992,12.767,14.473,19.5c4.767,4.952,9.216,10.057,9.888,11.342s1.636,8.167,2.141,15.292
		c0.995,14.042,1.304,14.963,9.581,28.661c6.023,9.968,11.918,27.904,16.5,50.209c2.088,10.161,1.608,40.205-0.957,60
		c-2.228,17.19-3.704,32.197-4.674,47.5c-1.144,18.027-4.211,52.965-5.62,63.999c-3.447,26.989-10.858,54.44-19.156,70.954
		c-2.552,5.079-16.179,25.84-29.381,44.762c-15.813,22.663-17.261,24.536-27.348,35.371c-4.141,4.447-10.903,12.118-15.028,17.046
		c-10.889,13.008-19.519,19.476-42.199,31.625c-3.685,1.974-12.01,6.761-18.5,10.639c-14.992,8.957-33.302,15.272-59.718,20.595
		c-5.922,1.193-8.767,2.341-11.285,4.553c-1.853,1.626-3.465,2.957-3.583,2.958s-4.04,0.682-8.715,1.513
		C423.229,1046.584,378.583,1046.865,368.929,1045.347L368.929,1045.347z M422.429,1032.936c4.675-0.805,10.497-1.942,12.937-2.529
		c2.44-0.587,5.366-0.981,6.5-0.876c1.135,0.105,3.863-0.604,6.063-1.575c2.2-0.971,9.625-3.466,16.5-5.544
		c29.789-9.005,41.302-14.657,76-37.316c48.533-31.694,56.28-40.024,86.638-93.162c6.6-11.55,13.175-23.536,14.613-26.636
		c4.404-9.491,7.749-21.916,7.749-28.783c0-5.22,0.693-7.855,3.992-15.183c5.316-11.807,5.772-14.316,6.532-35.898
		c0.695-19.751,1.478-27.004,6.626-61.499c3.104-20.797,3.284-23.533,3.3-50c0.022-35.947-1.339-43.135-12.968-68.5
		c-4.666-10.176-8.349-20.347-15.57-43c-3.561-11.17-6.947-19.262-10.881-26c-2.087-3.575-6.823-12.575-10.526-20
		c-16.461-33.006-40.08-58.443-77.465-83.427c-12.521-8.368-22.913-14.016-35.091-19.074c-10.966-4.555-64.083-22.061-70.949-23.384
		c-3.575-0.688-8.509-1.702-10.964-2.252c-5.358-1.201-14.978-2.334-37.036-4.364c-9.075-0.835-20.48-2.056-25.346-2.714
		c-8.095-1.094-8.928-1.048-9.816,0.54c-0.879,1.57-2.317,1.672-15.154,1.07c-25.002-1.173-64.659,3.548-85.957,10.235
		c-24.398,7.659-63.637,25.721-78.695,36.225c-18.389,12.827-38.507,31.944-48.56,46.146c-13.835,19.544-26.939,41.988-39.412,67.5
		c-12.083,24.717-18.307,43.722-24.562,75c-3.257,16.288-6.94,34.071-8.492,41c-4.048,18.08-7.189,35.127-13.542,73.5
		c-0.865,5.225-2.043,12.199-2.617,15.5c-2.099,12.051,0.254,30.183,6.813,52.499c11.971,40.736,25.675,68.557,44.836,91.023
		c1.652,1.938,4.805,5.705,7.005,8.372c5.442,6.599,20.053,19.35,55.25,48.219c23.021,18.882,47.227,34.622,65.296,42.459
		c22.709,9.85,82.352,29.124,107.954,34.887c5.225,1.177,11.075,2.545,13,3.042c5.888,1.521,27.705,3.992,43,4.872
		C402.124,1034.614,413.238,1034.517,422.429,1032.936L422.429,1032.936z M430.786,963.433c1.579-11.241,1.926-20,0.791-20
		c-0.632,0-1.148,0.525-1.148,1.167s-0.259,0.908-0.574,0.593s0.146-1.966,1.026-3.667c1.864-3.605,1.342-3.862-2.197-1.078
		c-3.197,2.515-4.046,1.842-1.867-1.483c2.336-3.565,0.688-3.145-4.256,1.088c-2.325,1.99-4.432,3.415-4.68,3.166
		c-0.249-0.249,1.343-3.016,3.537-6.148c7.03-10.035,9.199-15.878,5.076-13.672c-1.063,0.569-2.65,1.035-3.525,1.035
		c-1.453,0-1.453-0.268,0.01-3.093c1.854-3.584,1.202-4.856-1.594-3.11c-2.302,1.438-2.481,0.485-0.422-2.237
		c2.276-3.011,1.747-3.755-1.482-2.085c-4.815,2.49-5.799,1.74-2.05-1.563c3.157-2.783,3.255-3.015,1-2.369
		c-1.375,0.393-4.17,1.558-6.21,2.587c-5.523,2.786-5.659,2.333-0.79-2.629c2.429-2.475,4.152-4.5,3.83-4.5
		c-0.323,0-4.129,1.828-8.459,4.062l-7.871,4.063l4.973-4.563c5.671-5.201,5.119-5.597-2.877-2.062c-3.109,1.375-6.99,2.5-8.624,2.5
		c-3.031,0-3.711,0.853-2.034,2.551c0.591,0.598-0.856,0.985-3.909,1.047c-3.867,0.077-4.734-0.199-4.287-1.365
		c0.697-1.816-2.167-1.047-8.741,2.35c-4.191,2.166-4.308,2.328-1.691,2.372c1.545,0.025,2.558,0.453,2.25,0.951
		c-0.854,1.384-9.646,6.341-10.223,5.765c-1.185-1.185,3.209-7.9,7.026-10.74c6.461-4.809,23.418-12.704,31.138-14.499
		c8.154-1.896,17.553-1.488,22.301,0.967c3.986,2.062,7.174,7.019,10.574,16.444c3.272,9.072,3.447,18.646,0.589,32.158
		c-1.106,5.226-2.453,11.716-2.994,14.424c-1.263,6.319-2.44,7.471-1.612,1.576H430.786z M166.99,905.002
		c-3.621-1.888-8.429-5.011-10.684-6.94c-3.685-3.154-10.464-5.628-15.427-5.628c-0.798,0-1.451-0.45-1.451-1s1.039-1,2.309-1
		c1.27,0,3.157-0.62,4.193-1.378c1.77-1.294,1.69-1.421-1.297-2.077c-1.75-0.384-3.486-1.19-3.857-1.792
		c-0.43-0.694-0.082-0.864,0.957-0.466c0.897,0.344,1.9,0.191,2.228-0.339c0.854-1.38-8.026-4.948-12.315-4.948
		c-2.813,0-3.35-0.267-2.417-1.199c1.862-1.862,1.454-2.586-1.869-3.315c-3.004-0.66-3.031-0.717-1.25-2.685
		c2.549-2.817,2.53-14.191-0.031-18.002c-2.26-3.362-1.585-5.801,3.244-11.717c5.394-6.608,10.673-10.082,15.323-10.082
		c8.196,0,10.097,4.02,4.588,9.703c-3.764,3.884-2.616,4.163,5.21,1.269c3.017-1.116,7.061-2.44,8.986-2.943
		c1.925-0.503,5.3-1.395,7.5-1.981c6.306-1.682,18.045-3.83,30-5.491c6.05-0.84,15.409-2.201,20.797-3.024
		c5.389-0.822,12.813-1.743,16.5-2.044c3.687-0.302,8.503-0.729,10.703-0.952c2.2-0.222,8.301-0.693,13.559-1.048
		c7.695-0.52,9.779-0.998,10.69-2.457c0.96-1.537,0.848-1.737-0.741-1.322c-1.497,0.392-1.762,0.068-1.324-1.608
		c0.678-2.591,0.285-2.604-3.908-0.13c-3.058,1.805-3.582,1.844-6.229,0.471c-2.773-1.439-3.018-1.376-6.034,1.548
		c-3.357,3.254-4.513,3.086-4.513-0.654c0-1.284-0.221-2.334-0.491-2.334c-0.271,0-2.555,1.575-5.077,3.5
		c-2.522,1.925-5.001,3.5-5.509,3.5s-0.923-1.575-0.923-3.5c0-2.21-0.48-3.5-1.304-3.5c-0.717,0-2.831,1.575-4.696,3.5
		s-3.754,3.5-4.196,3.5s-0.804-1.613-0.804-3.586v-3.587l-4.24,3.118c-3.918,2.882-4.336,2.988-5.5,1.396
		c-0.693-0.947-1.26-2.312-1.26-3.031c0-2.023-1.625-1.567-5.215,1.465c-6.935,5.858-6.988,5.883-6.239,2.9
		c0.97-3.865-0.57-3.37-7.214,2.316c-3.207,2.745-6.206,4.995-6.663,5c-0.458,0,0.142-1.565,1.332-3.491
		c1.353-2.188,1.713-3.5,0.962-3.5c-0.661,0-3.793,1.575-6.962,3.5c-3.169,1.926-5.988,3.5-6.264,3.5s-0.738-0.899-1.026-2
		c-0.288-1.1-1.127-1.995-1.867-1.99c-0.739,0-5.843,2.194-11.343,4.863c-5.5,2.67-10.175,4.703-10.39,4.518
		c-0.214-0.185,0.911-1.972,2.5-3.971c1.589-1.999,4.119-5.499,5.621-7.777c1.714-2.6,2.738-3.49,2.75-2.393
		c0.025,2.363,0.379,2.28,7.657-1.79c4.949-2.767,6.184-3.148,5.659-1.75c-0.607,1.619-0.486,1.651,1.266,0.338
		c1.066-0.799,2.948-2.338,4.184-3.421c2.636-2.31,4.216-1.397,2.458,1.419c-1.875,3.002,0.403,2.472,6.75-1.571
		c6.388-4.069,7.05-4.206,6.29-1.298c-0.626,2.393-0.857,2.491,12.256-5.196l4-2.345l-2.424,2.683
		c-3.31,3.661-1.813,3.365,4.639-0.917c2.982-1.979,5.677-3.344,5.988-3.031c0.312,0.312-0.01,1.945-0.703,3.63
		c-0.698,1.686-1.002,3.332-0.675,3.659s4.086-1.464,8.354-3.979c7.697-4.536,9.793-5.16,7.32-2.18
		c-2.516,3.031-0.057,2.629,6.175-1.011c5.196-3.034,5.924-3.262,4.075-1.277c-4.061,4.36-2.797,4.345,7.003-0.085
		c11.972-5.413,13.438-5.68,9.997-1.823c-1.696,1.901-1.673,1.938,0.75,1.198c1.375-0.42,5.087-2.062,8.25-3.647
		c6.15-3.085,7.003-2.718,3.636,1.563c-1.163,1.479-1.896,2.905-1.63,3.172s2.809-0.433,5.651-1.553
		c6.99-2.755,7.304-2.675,6.492,1.65l-0.692,3.687l3.013-2.437c1.657-1.341,6.561-5.597,10.896-9.46
		c9.382-8.357,18.936-15.261,26.1-18.857c7.101-3.565,8.518-3.248,4.048,0.907c-4.137,3.846-4.084,4.206,0.285,1.947
		c2.669-1.38,2.95-1.374,2.95,0.063c0,0.874-1.002,4.459-2.227,7.967c-1.224,3.508-1.954,6.649-1.623,6.98s2.12-0.126,3.976-1.017
		c3.271-1.569,3.377-1.806,3.483-7.805c0.086-4.826,0.88-7.834,3.609-13.675c1.925-4.118,4.35-8.436,5.39-9.595
		c2.692-2.998,8.684-5.824,17.686-8.343c9.553-2.671,13.564-2.298,4.935,0.459c-3.426,1.095-6.229,2.328-6.229,2.74
		c0,0.413,1.688,0.787,3.75,0.832l3.75,0.082l-3.5,1.441c-1.925,0.792-4.851,2.096-6.5,2.896c-2.88,1.397-2.74,1.435,3.5,0.953
		l6.5-0.501l-5,2.48c-3.908,1.938-4.345,2.363-2,1.945c2.854-0.509,2.807-0.421-1,1.82c-4.957,2.918-5.593,5.796-1.92,8.685
		c1.479,1.164,3.313,2.116,4.074,2.116s3.259,1.183,5.549,2.628c4.122,2.602,4.198,2.61,7.48,0.843
		c3.535-1.904,4.257-4.445,1.833-6.457c-1.197-0.994-2.161-0.832-5,0.844c-4.325,2.552-4.533,1.49-0.472-2.401
		c2.585-2.476,2.82-3.082,1.558-4.005c-1.256-0.918-1.067-1.328,1.205-2.623c6.278-3.58,18.275-4.488,30.333-2.297
		c3.506,0.637,3.686,0.526,4.85-3.002c1.51-4.574,0.946-5.182-2.653-2.859l-2.837,1.83l3.296-4.5
		c3.888-5.307,2.865-6.07-4.121-3.075c-2.571,1.102-4.675,1.726-4.675,1.385c0-0.34,2.761-3.116,6.134-6.17
		c3.374-3.053,5.694-5.697,5.156-5.877c-0.538-0.179-3.137,0.6-5.775,1.73s-5.047,1.808-5.353,1.502
		c-0.305-0.305,2.685-3.813,6.642-7.798c3.958-3.984,7.196-7.578,7.196-7.985s-1.777,0.436-3.95,1.874
		c-2.173,1.438-4.402,2.456-4.955,2.264c-0.552-0.192,1.021-3.493,3.496-7.335s4.062-7.132,3.524-7.31
		c-0.537-0.18-2.816,0.893-5.066,2.381c-2.249,1.488-4.312,2.484-4.582,2.214s1.297-3.128,3.483-6.351
		c2.187-3.222,3.809-6.023,3.605-6.228c-0.203-0.203-1.786,0.362-3.516,1.257l-3.146,1.627l1.803-3.184
		c0.992-1.751,2.344-4.122,3.004-5.27c1.674-2.91,0.992-3.147-3.679-1.278c-6.166,2.468-6.408,2.056-2.045-3.464
		c2.213-2.8,4.023-5.5,4.023-6s-1.351-0.91-3-0.91c-1.65,0-3-0.521-3-1.158s1.839-3.542,4.087-6.455s3.858-5.667,3.578-6.12
		c-0.279-0.452,1.031-3.264,2.913-6.249c4.1-6.502,4.372-8.239,0.775-4.943c-1.605,1.471-0.676-0.327,2.366-4.576
		c3.151-4.401,5.526-9.042,6.396-12.5l1.384-5.5l0.618,11.5c0.34,6.325,0.678,18.99,0.75,28.144
		c0.194,24.583,1.45,34.09,6.586,49.856c2.418,7.424,4.431,12.904,4.472,12.177c0.067-1.21-2.499-12.789-5.037-22.723
		c-1.265-4.946-0.818-11.659,0.809-12.193c0.841-0.276,1.034,0.62,0.647,2.998c-1.365,8.416,6.557,26.77,14.726,34.114
		c5.729,5.15,15.506,8.611,24.458,8.657c4.763,0.023,5.596,0.248,4.114,1.109c-2.874,1.67-13.523,0.492-19.587-2.167
		c-2.994-1.313-7.382-3.865-9.75-5.673c-4.273-3.263-4.306-3.27-4.306-0.916c0,5.705,4.356,12.14,10.343,15.274
		c2.685,1.406,5.219,1.03,3.122-0.463c-0.537-0.383-2.279-2.496-3.871-4.696c-2.817-3.892-2.749-3.86,2.505,1.136
		c2.971,2.824,6.384,5.637,7.586,6.25c2.504,1.278,8.96,1.498,9.682,0.331c0.267-0.431-2.86-2.528-6.948-4.66
		c-8.731-4.553-9.204-5.763-0.8-2.046c3.228,1.427,7.71,2.847,9.961,3.155c3.613,0.495,4.547,0.167,7.968-2.802l3.875-3.364
		l-2.711,3.595c-1.491,1.977-2.711,3.815-2.711,4.085s3.712,0.294,8.25,0.054c9.824-0.519,10.756-1.315,10.734-9.174
		c-0.019-7.063-1.102-9.052-3.195-5.869c-1.328,2.019-9.789,7.646-9.789,6.512c0-0.234,1.35-2.125,3-4.202
		c1.65-2.076,3-4.325,3-4.997c0-0.673,1.138-2.9,2.529-4.95c4.459-6.571,2.151-10.937-11.392-21.552
		c-2.405-1.886-4.189-5.082-7.258-13c-8.591-22.175-8.091-19.575-7.593-39.5c0.31-12.347,0.916-19.306,1.933-22.157
		c1.455-4.08,1.437-4.178-0.957-5.269c-1.341-0.611-5.876-2.032-10.077-3.158c-10.358-2.776-10.896-3.342-7.184-7.571
		c2.504-2.852,3.001-4.274,3.014-8.629c0.018-6.067,1.347-9.227,2.334-5.55l0.627,2.334l2.353-2.919l2.354-2.92l0.641,3.205
		c0.617,3.089,0.724,3.15,2.953,1.689c2.121-1.39,2.455-1.349,4.036,0.498c1.477,1.726,2.469,1.919,6.955,1.362
		c5.096-0.633,6.187-1.038,12.521-4.646l3.041-1.732l0.673,3.982c0.37,2.19,0.93,3.982,1.244,3.982s2.969-1.81,5.898-4.022
		c6.81-5.141,9.551-5.66,16.156-3.056c6.837,2.695,8.797,2.62,10.784-0.414c1.802-2.749,3.414-2.474,3.414,0.582
		c0,3.178,2.71,3.333,6.235,0.355l3.265-2.757l0.316,2.656c0.375,3.146,2.649,3.484,4.416,0.656c2.071-3.317,3.768-2.417,3.768,2
		c0,4.56,0.883,4.886,4.997,1.844l2.916-2.156l5.919,2.656c5.364,2.408,7.063,2.656,18.156,2.656h12.238l-0.444,3.032
		c-0.605,4.125,2.557,7.116,10.472,9.9c13.45,4.732,13.005,4.314,6.221,5.842c-3.286,0.74-8.622,1.602-11.858,1.916l-5.884,0.57
		l0.658,11.12c0.747,12.601,2.8,29.161,3.729,30.081c0.342,0.337,0.027,2.334-0.697,4.437s-1.614,6.062-1.977,8.797
		c-0.764,5.755-1.439,5.274,13.804,9.818c4.813,1.435,8.75,3.03,8.75,3.548c0,1.697-3.828,0.986-11.724-2.178
		c-19.067-7.641-17.645-4.801,4.224,8.431c4.4,2.662,8.875,5.693,9.944,6.735c5.425,5.287-4.151,1.371-13.518-5.527
		c-13.71-10.098-16.689-10.289-19.318-1.248c-0.876,3.014-3.16,7.189-5.321,9.731c-3.763,4.423-3.767,4.438-0.633,2.224
		c5.402-3.817,5.025-2.462-0.934,3.356c-3.449,3.367-5.727,6.444-5.734,7.75c-0.01,1.19-0.283,3.172-0.613,4.402
		c-1.144,4.264,2.275,3.805,7.984-1.071c4.588-3.92,13.969-8.664,17.135-8.666c0.546,0-3.504,2.979-9,6.62
		s-11.792,8.319-13.992,10.396c-12.259,11.568-34.095,15.14-60.357,9.872c-2.946-0.591-5.715-0.695-6.152-0.231
		c-0.438,0.464-1.503,3.646-2.367,7.071c-2.565,10.173-7.403,16.238-19.361,24.271c-3.667,2.464-5.218,4.167-5.236,5.75
		c-0.027,2.486,1.079,2.8,4.128,1.168c1.112-0.595,3.22-1.29,4.685-1.544c1.464-0.254,5.041-1.343,7.949-2.418
		c6.635-2.454,7.504-2.448,6.713,0.044c-0.754,2.375,0.087,2.458,6.933,0.683c2.713-0.703,5.115-1.826,5.339-2.496
		c0.233-0.701-1.965-2.266-5.183-3.689c-5.954-2.633-6.502-3.44-4.018-5.925c2.816-2.817,5.917-1.804,12.527,4.096
		c3.493,3.116,9.719,7.865,13.835,10.552c6.479,4.23,7.961,4.806,11.036,4.286c3.176-0.537,4.337-0.013,10.967,4.947
		c4.078,3.051,7.55,5.547,7.714,5.547c0.165,0,0.028-1.357-0.304-3.018c-0.725-3.622-0.708-3.618,11.62,2.807
		c8.688,4.527,10.522,4.418,7.346-0.438c-2.027-3.102-1.539-2.921,5.188,1.917c2.2,1.582,4.41,3.609,4.911,4.505
		c0.629,1.122,0.045,0.945-1.885-0.572c-3.675-2.891-4.891-2.785-4.103,0.354l0.642,2.554l-3.021-2.232
		c-2.854-2.11-3.454-2.176-10.92-1.19c-4.345,0.574-8.89,1.737-10.102,2.585c-2.084,1.461-1.784,1.575,5.638,2.155
		c8.484,0.662,21.854,2.726,29.839,4.605c12.481,2.938,24.803,11.667,22.512,15.948c-1.498,2.797-4.351,3.296-9.715,1.696
		c-8.157-2.431-12.156-4.438-17.067-8.568c-6.791-5.714-9.24-6.428-15.994-4.664c-4.299,1.122-6.702,1.222-10.401,0.428
		c-4.493-0.964-5.521-0.755-15.572,3.163c-5.919,2.307-16.423,6.571-23.342,9.477s-17.943,6.914-24.5,8.908
		c-6.556,1.993-13.302,4.065-14.991,4.604c-3.81,1.213-17.528,1.284-20.632,0.105c-1.264-0.479-4.097-1.406-6.297-2.061
		s-7.6-2.85-12-4.878l-8-3.689l-19,0.12c-16.427,0.104-19.813,0.4-25,2.193l-6,2.072l5.5-0.667c9.415-1.142,29.188-0.745,35,0.703
		c3.025,0.753,9.36,3.062,14.078,5.129s13.101,5.111,18.628,6.766c10.825,3.238,16.294,5.658,16.294,7.21
		c0,0.535-0.181,0.974-0.4,0.974c-0.753,0-32.089-8.985-38.1-10.925c-30.642-9.888-47.313-10.166-65.5-1.094
		c-3.025,1.509-7.75,3.24-10.5,3.847c-6.987,1.542-20.585,3.421-21.092,2.914c-0.231-0.231,2.395-1.219,5.835-2.194
		c3.441-0.975,7.382-2.126,8.757-2.558s5.112-1.556,8.306-2.498s5.601-1.919,5.35-2.17s-3.908,0.024-8.128,0.611
		c-16.995,2.363-29.599,0.847-50.027-6.021c-15.821-5.319-30.654-12.581-37.926-18.567l-5.884-4.845l-33.595,0.048
		c-41.767,0.059-48.624,0.942-65.845,8.492c-4.554,1.997-5.25,2.678-5.25,5.131c0,3.81,2.172,3.71,11.838-0.539
		c8.387-3.687,15.334-5.053,33.905-6.669c11.932-1.038,16.73-0.88,34.257,1.133c4.675,0.536,12.15,1.375,16.612,1.864
		c10.042,1.101,15.778,2.6,17.394,4.548c1.564,1.885,1.433,1.877-7.274-0.395c-3.977-1.038-10.832-2.173-15.231-2.521
		c-4.4-0.35-11.15-0.963-15-1.363s-15.325-0.704-25.5-0.676c-14.728,0.042-19.724,0.417-24.5,1.837c-3.3,0.981-7.35,2.129-9,2.55
		s-5.96,1.957-9.579,3.413s-7.261,2.647-8.096,2.647s-2.981,0.73-4.77,1.622c-2.396,1.195-4.478,1.437-7.904,0.915
		c-2.558-0.39-7.275-0.645-10.482-0.567c-3.217,0.078-6.467-0.387-7.25-1.037c-1.184-0.982-1.418-0.536-1.414,2.695
		c0.016,11.462,8.013,20.338,18.367,20.387c1.72,0.011,4.239,0.577,5.598,1.265c2.493,1.262,7.438,7.646,6.584,8.501
		c-0.254,0.254-2.395-1.041-4.758-2.878l-4.296-3.339l4.25,4.696c4.362,4.819,5.399,7.74,2.75,7.74
		c-2.291,0-1.907,0.759,3.599,7.114c2.805,3.237,4.862,5.886,4.573,5.886C173.811,908.433,170.611,906.889,166.99,905.002
		L166.99,905.002z M477.278,849.924c6.467-3.011,6.98-3.064,4.65-0.49c-2.902,3.207-0.257,2.396,11.622-3.561
		c11.591-5.813,14.803-6.641,7.807-2.011c-6.47,4.281-3.897,4.121,5.648-0.352c9.05-4.241,12.147-4.882,5.966-1.234
		c-1.949,1.149-3.543,2.556-3.543,3.124c0,2.625,11.832-0.015,18.113-4.042c2.538-1.627,6.771-4.05,9.405-5.384
		c4.647-2.353,4.711-2.444,2.142-3.09c-1.456-0.365-6.363-0.335-10.904,0.067s-47.742,0.91-96.004,1.128l-87.749,0.396l-4.751,3.081
		c-4.319,2.8-4.479,3.033-1.752,2.562c1.649-0.286,4.745-0.972,6.878-1.525l3.879-1.006l-3.832,3.924
		c-2.106,2.158-3.461,3.924-3.009,3.924s3.495-1.624,6.762-3.608s6.099-3.447,6.294-3.25c0.194,0.197-2.055,2.383-4.999,4.858
		c-5.641,4.741-7.396,7.468-2.723,4.23c1.513-1.048,3.425-2.201,4.25-2.562c0.825-0.361,3.188-1.791,5.25-3.178
		c4.961-3.335,4.809-1.554-0.224,2.608c-5.396,4.464-4.244,4.959,1.681,0.723c7.241-5.177,8.127-5.477,4.347-1.473
		c-4.085,4.326-3.354,4.71,1.763,0.926c2.623-1.939,3.18-2.134,1.934-0.672c-2.841,3.333-2.087,3.388,4.266,0.311
		c8.634-4.183,9.837-3.904,5.484,1.268c-2.656,3.156-3.33,5.423-1.25,4.203c0.688-0.403,3.872-2.495,7.077-4.649
		c6.25-4.199,8.229-4.548,4.169-0.732c-4.466,4.195-2.647,4.221,4.877,0.066c8.709-4.808,10.337-5.147,5.589-1.168
		c-1.904,1.597-3.237,3.13-2.962,3.408c0.274,0.277,3.649-1.016,7.5-2.875c8.026-3.875,10.083-4.291,6.5-1.314l-2.5,2.076l3.5-1.993
		c1.925-1.097,5.075-2.939,7-4.095c1.925-1.156,3.837-2.104,4.25-2.105c1.24-0.01,0.85,2.903-0.824,6.139
		c-0.865,1.674-1.314,3.302-0.998,3.618c0.316,0.317,2.712-0.934,5.324-2.778c2.616-1.85,3.963-2.45,2.998-1.34
		c-2.776,3.196-2.071,3.425,2.5,0.812c5.706-3.263,7.507-3.259,5.365,0.011c-2.396,3.655-2.025,3.819,2.364,1.048
		c4.573-2.887,6.021-3.13,6.021-1.013c0,1.742,3.807,1.989,8.757,0.57c1.783-0.512,3.243-0.548,3.243-0.08s-1.345,1.146-2.988,1.507
		c-3.037,0.667-5.155,2.503-2.889,2.503c0.683,0,5.224-0.511,10.091-1.135c4.867-0.625,9.166-0.819,9.553-0.432
		c0.387,0.387-0.415,1.601-1.781,2.697l-2.485,1.994l2.5-0.7c3.411-0.955,4.644-1.178,3.75-0.678
		c-1.239,0.693-0.845,3.254,0.5,3.243C471.366,852.424,474.336,851.293,477.278,849.924L477.278,849.924z M338.879,835.372
		c1.129-1.115-2.106-1.221-8.884-0.292c-3.227,0.442-4.295,0.928-3.39,1.539C328.168,837.674,337.508,836.725,338.879,835.372z
		 M496.429,826.954c1.375-0.145,9.7-0.334,18.5-0.422c16.272-0.162,18.115-0.898,7.5-2.998c-7.337-1.451-21.756-4.506-31-6.568
		c-10.881-2.429-17.648-2.361-22.609,0.224c-7.892,4.112-32.933,5.46-42.972,2.312c-3.344-1.048-12.399-2.685-20.122-3.636
		c-12.193-1.502-17.447-1.603-39.919-0.763c-20.921,0.781-26.488,1.288-29.064,2.643c-5.992,3.149-5.259,4.058,2.778,3.438
		c7.537-0.582,11.601-0.289,36.408,2.623c36.484,4.283,40.951,4.504,80,3.95C476.828,827.459,495.054,827.098,496.429,826.954
		L496.429,826.954z M459.942,813.553c8.213-2.675,12.358-4.547,13.341-6.026c1.779-2.681,1.636-2.813-4.953-4.541
		c-2.971-0.778-8.977-3.051-13.346-5.048c-8.748-3.998-17.33-6.521-22.016-6.473c-3.197,0.033-2.894,0.549,2.101,3.563
		c1.666,1.006,1.683,1.225,0.204,2.704c-1.209,1.208-1.477,2.793-1.074,6.362l0.536,4.754l-5.293-4.214
		c-5.862-4.668-8.014-4.408-8.014,0.97c0,4.239,3.908,7.31,12.294,9.657C443.873,818.103,446.495,817.932,459.942,813.553z
		 M401.946,798.744c2.19-1.479,6.593-4.854,9.784-7.5c6.202-5.142,7.705-5.577,11.832-3.424c3.365,1.756,5.639,0.604,3.14-1.592
		c-3.22-2.828-5.757-2.919-11.365-0.405c-3.946,1.769-7.94,2.578-14.778,2.994c-10.076,0.613-10.985,1.011-14.007,6.133
		l-1.981,3.358l8.453-3.08c4.649-1.693,8.743-2.79,9.097-2.437s-0.804,2.442-2.571,4.643
		C395.788,802.113,396.436,802.466,401.946,798.744L401.946,798.744z M441.784,755.183c-0.594-3.773-3.139-9.3-3.922-8.517
		c-0.402,0.402,3.634,12.767,4.166,12.767C442.262,759.433,442.151,757.521,441.784,755.183L441.784,755.183z M499.208,750.288
		c-0.276-0.817-1.157,0.033-2.224,2.146l-1.767,3.5l2.224-2.146C498.664,752.608,499.459,751.033,499.208,750.288z M546.283,723.008
		c1.516-0.783,3.284-2.584,3.93-4c0.915-2.01,1.891-2.571,4.444-2.559l3.271,0.018l-3.25,2.081c-1.788,1.146-3.25,2.426-3.25,2.847
		c0,1.478,10.521-1.122,12.5-3.088c1.854-1.844,1.877-2.08,0.321-3.239c-1.507-1.122-1.381-1.362,1.234-2.349
		c1.602-0.605,4.606-0.874,6.678-0.598c5.52,0.736,9.494-2.886,16.118-14.688c1.603-2.855,2.214-27.418,0.81-32.5l-0.83-3
		l-1.916,2.361c-2.312,2.849-2.376,2.487-0.401-2.239c1.677-4.013,0.847-4.56-3.049-2.007c-2.869,1.88-3.103,1.288-0.85-2.15
		c1.971-3.008,1.513-3.063-3.059-0.366c-3.721,2.196-4.2,1.725-2.581-2.534c1.031-2.714,0.215-3.355-1.759-1.382
		c-1.935,1.935-2.365,0.33-0.747-2.785c1.987-3.826,0.601-4.1-4.491-0.885c-2.292,1.447-4.354,2.444-4.584,2.215
		c-0.229-0.229,0.735-2.115,2.144-4.189c1.408-2.075,2.378-3.956,2.154-4.179c-0.223-0.224-2.879,1.629-5.9,4.117
		s-5.799,4.523-6.17,4.523s0.899-2.338,2.823-5.195c1.924-2.857,3.314-5.379,3.09-5.604c-0.226-0.225-3.472,2.078-7.215,5.118
		c-3.744,3.04-6.976,5.358-7.183,5.151c-0.206-0.207,1.253-2.278,3.243-4.604c5.412-6.323,4.392-6.657-2.881-0.942
		c-3.575,2.81-6.5,4.755-6.5,4.324s1.125-2.44,2.5-4.464c4.195-6.174,2.846-5.577-5.063,2.24c-6.806,6.727-7.492,7.175-6.859,4.475
		c0.387-1.65,1.314-4.215,2.063-5.7c0.747-1.485,1.359-3.453,1.359-4.373c0-1.42-0.241-1.472-1.601-0.344
		c-0.881,0.731-2.257,1.425-3.058,1.542s-4.862,2.163-9.024,4.544s-7.849,4.305-8.192,4.274s-1.492,0.752-2.552,1.739
		c-3.393,3.16-2.929,1.069,0.927-4.183c2.057-2.802,3.549-5.285,3.315-5.518c-0.233-0.233-3.763,2.938-7.845,7.047
		c-4.081,4.109-7.929,7.471-8.55,7.471c-3.794,0-7.78,7.639-9.785,18.75c-0.887,4.917-0.027,3.903,1.908-2.25
		c2.664-8.471,3.816-6.907,3.131,4.25c-0.649,10.562-0.267,11.291,0.916,1.75l0.744-6l0.775,4c0.426,2.2,0.871,7.15,0.989,11
		c0.211,6.893,0.224,6.923,0.836,2l0.621-5l0.817,6.228l0.817,6.228l3.356-2.561c1.847-1.408,4.166-2.393,5.154-2.188
		c1.413,0.293,0.998,0.899-1.939,2.833c-2.056,1.353-3.743,2.783-3.75,3.179c-0.018,0.995,3.128-0.214,5.215-2.006
		c1.906-1.636,7.117-2.579,6.219-1.125c-0.311,0.502-1.243,0.913-2.072,0.913c-1.245,0-5.851,2.885-9.717,6.088
		c-1.345,1.113,2.164,5.609,7.341,9.41c5.401,3.965,8.517,4.467,9.293,1.497c0.322-1.231,1.077-1.792,1.96-1.452
		c0.79,0.303,3.869-0.402,6.843-1.567l5.406-2.118l-3.899,4.016c-3.378,3.479-4.314,3.935-7,3.402
		c-2.812-0.556-2.972-0.457-1.723,1.063C525.565,723.733,540.884,725.801,546.283,723.008L546.283,723.008z M562.149,697.224
		c-4.111-1.091-6.721-4.698-6.721-9.291c0-6.38,6.825-13.011,13.229-12.851c3.844,0.096,8.771,2.593,8.771,4.445
		c0,0.577,0.675,1.724,1.5,2.548c2.03,2.03,1.886,4.68-0.51,9.376C575.209,697.743,570.458,699.429,562.149,697.224L562.149,697.224
		z M573.896,688.065c2.956-3.875,2.543-6.205-1.227-6.925c-5.571-1.065-9.466,4.927-5.67,8.723
		C569.364,692.226,571.06,691.784,573.896,688.065z M359.429,903.146c0-0.727,1.35-3.45,3-6.052c2.873-4.53,3.651-6.661,2.435-6.661
		c-0.312,0-3.982,1.579-8.158,3.509c-4.177,1.93-7.778,3.322-8.005,3.096c-0.843-0.843,8.409-6.371,13.422-8.02
		c7.243-2.382,11.247-5.345,14.305-10.585c5.102-8.743,14.126-13.086,30.002-14.439l6.5-0.555l-4.767,1.347
		c-2.621,0.741-5.021,1.603-5.334,1.915c-0.711,0.711,6.865,1.493,21.101,2.177c13.9,0.668,17.499,1.699,25.317,7.261
		c6.554,4.66,7.459,6.111,2.683,4.295c-1.527-0.58-3.028-0.805-3.335-0.498c-0.307,0.306,2.682,3.816,6.639,7.801
		c3.958,3.984,7.196,7.568,7.196,7.965c0,0.396-2.11-0.891-4.688-2.859c-5.087-3.883-24.316-13.904-24.305-12.667
		c0,0.418,1.579,1.83,3.5,3.138c5.534,3.77,4.061,4.364-2.257,0.911c-3.463-1.894-5.204-2.477-4.378-1.467
		c1.705,2.083,0.889,2.093-5.933,0.066c-15.054-4.471-41.064,2.953-58.689,16.751C362.241,902.265,359.429,903.873,359.429,903.146
		L359.429,903.146z M583.429,900.055c0-0.207,0.701-2.057,1.559-4.107c1.962-4.695,1.188-5.547-2.211-2.435l-2.645,2.42l0.555-2.25
		c0.377-1.529,0.104-2.25-0.852-2.25c-0.773,0-1.406-0.449-1.406-1c0-0.55,0.609-1,1.354-1c1.528,0,11.646-10.329,11.646-11.89
		c0-0.556-0.788-1.47-1.75-2.03c-1.667-0.971-1.667-1.021,0-1.05c0.962-0.017,1.75-0.653,1.75-1.415c0-0.913,1.787-1.627,5.25-2.097
		c2.888-0.393,5.925-0.831,6.75-0.975s4.425-0.582,8-0.974c6.642-0.729,14.818-3.686,16.199-5.858
		c1.157-1.821,0.954-7.257-0.39-10.414c-0.654-1.539-2.688-5.295-4.518-8.347c-3.049-5.083-3.231-5.838-2.179-9
		c0.632-1.897,1.797-4.126,2.589-4.951c1.271-1.324,1.813-1.061,4.619,2.25c1.748,2.063,3.741,3.751,4.429,3.75
		c2.014,0,1.437-4.172-0.925-6.686c-1.63-1.734-1.803-2.314-0.69-2.314c0.815,0,2.254,0.564,3.196,1.254
		c1.454,1.063,1.762,3.438,2.023,15.642c0.291,13.567,0.169,14.667-2.127,19.274c-3.018,6.057-6.335,8.589-17.478,13.338
		c-9.027,3.849-11.408,6.082-5.25,4.927c1.927-0.361,3.5-0.246,3.5,0.258c0,1.484-13.239,5.308-18.38,5.308
		c-3.039,0-4.507,0.375-4.093,1.045c0.355,0.574-1.208,3.499-3.474,6.5C584.805,899.849,583.429,901.232,583.429,900.055
		L583.429,900.055z M592.179,886.803c2.823-0.757,2.893-1.969,0.153-2.685c-2.705-0.708-4.903,0.154-4.903,1.922
		C587.429,887.548,588.661,887.746,592.179,886.803z M80.768,858.183c-2.245-2.513-5.563-10.034-7.294-16.534
		c-1.888-7.089-1.468-17.063,0.956-22.72c9.053-21.119,15.151-28.432,27.9-33.457c14.962-5.897,35.159-7.196,49.598-3.189
		c4.4,1.221,8.675,2.399,9.5,2.618c3.591,0.954,15.943,5.432,17.96,6.512c4.132,2.211,1.333,2.091-8.076-0.348
		c-10.483-2.717-26.968-6.195-34.016-7.178c-7.219-1.006-14.521,1.034-23.398,6.537c-4.384,2.718-10.511,6.289-13.616,7.937
		c-9.41,4.993-14.083,12.68-18.585,30.572l-1.762,7l-0.546-4l-0.545-4l-1.341,5.634c-1.605,6.742-0.955,10.983,2.771,18.093
		c3.512,6.699,4.292,8.773,3.296,8.773C83.135,860.433,81.873,859.421,80.768,858.183L80.768,858.183z M606.556,832.183
		c-2.727-2.667-3.918-3.412-3.2-2c0.629,1.237,0.79,2.238,0.358,2.224c-1.681-0.059-7.649-5.809-7.879-7.591
		c-0.134-1.035-0.565-3.008-0.961-4.383c-0.647-2.254-0.298-2.107,3.555,1.5c4.208,3.94,4.706,3.593,2.507-1.75
		c-1.161-2.819,0.891-2.032,5.672,2.177c4.001,3.521,6.821,8.871,6.821,12.939C613.429,837.54,610.822,836.358,606.556,832.183
		L606.556,832.183z M639.223,815.933c0.388-1.649,0.68-6.181,0.648-10.067c-0.074-9.115-2.342-13.577-9.789-19.26
		c-4.979-3.8-6.735-4.504-14.412-5.781c-7.232-1.203-10.861-1.253-21.021-0.286c-6.754,0.644-12.522,0.927-12.818,0.631
		c-0.851-0.851,14.451-6.426,21.325-7.77c4.937-0.966,7.942-0.956,14.5,0.044c15.822,2.414,19.176,5.078,23.384,18.573
		c3.03,9.718,2.928,15.322-0.408,22.416C639.105,817.68,638.713,818.098,639.223,815.933L639.223,815.933z M259.929,791.546
		c-4.422-1.146-9.143-3.803-13.31-7.491c-2.029-1.797-6.744-4.952-10.476-7.013c-8.183-4.518-12.407-8.579-16.671-16.032
		c-4.592-8.026-6.222-8.634-19.994-7.45c-14.624,1.257-17.293,0.828-9.549-1.532c5.636-1.719,18.171-2.636,21.5-1.572
		c1.257,0.401,1.443-0.653,1.151-6.521c-0.275-5.533-1.005-8.206-3.484-12.757c-2.418-4.439-3.284-5.354-3.782-4
		c-0.462,1.258-0.866,0.627-1.418-2.217c-0.425-2.186-1.518-6.09-2.429-8.676c-1.268-3.6-1.988-4.499-3.07-3.83
		c-0.873,0.539-1.679,0.445-2.106-0.246c-0.5-0.811-2.796-0.657-8.305,0.553c-4.187,0.92-8.345,1.673-9.239,1.673
		c-1.492,0-1.489-0.151,0.028-1.829c0.911-1.006,1.655-2.197,1.655-2.646c0-0.775-11.217-0.215-22.75,1.137
		c-3.267,0.383-5.25,0.234-5.25-0.394c0-1.529,7.201-3.049,20.5-4.325c16.819-1.615,21.042-2.38,20.75-3.76
		c-0.138-0.65,0.65-1.183,1.75-1.183c2.458,0,2.551-0.876,0.269-2.545c-1.52-1.111-1.398-1.202,1-0.744
		c3.669,0.702,3.66-1.827-0.019-4.756l-2.75-2.19l3.25,0.697c1.788,0.383,3.25,0.311,3.25-0.16c0-2.134-3.32-5.302-5.557-5.302
		c-1.812,0-2.443-0.54-2.443-2.089c0-1.168-2.029-4.061-4.604-6.563c-5.375-5.225-5.211-6.79,0.288-2.736l3.816,2.813l-2.424-2.712
		c-2.832-3.168-2.524-3.275,3.025-1.055c3.544,1.418,4.657,1.471,7.717,0.364c3.526-1.275,3.622-1.239,6.864,2.593
		c1.809,2.137,3.295,4.224,3.303,4.636c0.01,0.413,0.423,0.75,0.921,0.75s1.061-4.387,1.25-9.75
		c0.289-8.183,0.786-10.649,3.094-15.35c3.886-7.913,3.707-8.729-2-9.095c-2.612-0.167-8.575,0.052-13.25,0.488
		s-10.525,0.65-13,0.475c-4.438-0.313-4.462-0.334-1.75-1.519c4.432-1.934,3.255-3.2-2.5-2.691c-5.078,0.45-5.144,0.423-2.015-0.797
		c4.237-1.653,4.419-2.669,0.765-4.278l-3-1.321l3.281-0.081c1.988-0.049,3.517-0.694,3.878-1.635
		c0.328-0.855,4.476-3.505,9.219-5.889c4.742-2.384,9.508-5.316,10.591-6.517c1.892-2.097,9.298-5.933,14.531-7.526
		c2.012-0.613,1.719-0.135-1.5,2.449c-6.232,5.001-6.211,5.018,1.955,1.529c3.342-1.428,3.758-1.453,2.688-0.164
		c-1.056,1.271-0.224,1.21,4.994-0.37c3.443-1.042,6.506-1.65,6.806-1.35s-1.027,1.849-2.948,3.441
		c-4.39,3.639-2.485,3.778,6.034,0.439c3.524-1.381,6.829-2.37,7.344-2.198c0.516,0.172-1.382,2.015-4.217,4.096
		s-5.154,3.986-5.154,4.234c0,0.247,4.351-1.896,9.668-4.763c9.359-5.045,10.369-5.036,5.933,0.052
		c-2.041,2.342-2.044,2.389-0.101,1.665c1.1-0.41,3.125-0.916,4.5-1.123s5.19-1.491,8.477-2.854
		c6.744-2.794,8.103-2.629,4.123,0.501c-4.177,3.285-2.543,3.239,4.989-0.14l6.877-3.085l-2.483,2.724
		c-2.488,2.729-1.656,2.556,3.017-0.631c1.375-0.938,3.602-2.048,4.949-2.467l2.449-0.762l-2.74,3.256
		c-1.507,1.791-2.513,3.483-2.235,3.761s3.018-0.514,6.089-1.761l5.583-2.266l4.366,3.135c4.462,3.205,6.139,3.915,5.039,2.136
		c-0.911-1.474,0.114-1.238,4.636,1.07c5.249,2.677,5.917,1.876,1.709-2.048l-3.346-3.12l6.352,3.114
		c3.493,1.713,6.636,2.83,6.983,2.482c0.349-0.348-0.45-2.514-1.773-4.814l-2.407-4.182l6.059,5.249
		c3.333,2.887,6.47,5.249,6.973,5.249c0.502,0,0.727-1.596,0.499-3.548c-0.403-3.458-0.342-3.53,2.451-2.861
		c1.575,0.377,3.623,1.074,4.549,1.548c2.584,1.322,4.815,1.026,4.815-0.639c0-2.116,0.961-1.853,5.347,1.467
		c3.126,2.366,4.298,2.739,6.265,1.991c2.427-0.923,7.664-4.373,10.184-6.708c1.919-1.779,2.436-1.551,1.705,0.75
		c-0.764,2.407,0.532,2.552,4.493,0.504c3.038-1.571,4.437-0.787,3.403,1.906c-0.913,2.379,1.403,1.937,4.794-0.917
		c1.639-1.379,3.392-2.252,3.895-1.941c2.567,1.586-0.919,20.981-4.524,25.173c-2.424,2.817-7.723,4.049-18.561,4.314
		c-3.574,0.088-7.625,0.52-9,0.96c-2.328,0.746-2.259,0.816,1,1.019l3.5,0.218l-3,0.763c-2.985,0.76-2.981,0.764,0.75,0.882
		c2.063,0.065,3.75,0.465,3.75,0.889c0,0.424-2.024,1.877-4.5,3.229c-5.129,2.802-5.678,4-1.833,4c1.467,0,2.362,0.304,1.991,0.676
		c-0.801,0.801,3.212,5.311,4.767,5.356c0.592,0.018,1.976,0.736,3.076,1.597c1.902,1.49,1.842,1.533-1.25,0.889l-3.25-0.677v11.998
		c0,6.599-0.151,12.597-0.337,13.33c-0.185,0.732-0.147,0.994,0.083,0.582c1.312-2.345,1.784,0.68,2.061,13.179
		c0.329,14.896-0.136,16.824-6.17,25.541c-6.349,9.172-9.221,10.949-20.165,12.471c-6.191,0.861-8.722,1.728-11.459,3.923
		c-1.933,1.55-8.347,5.219-14.255,8.153c-5.907,2.934-10.568,5.508-10.357,5.719c0.211,0.211,3.207-0.543,6.657-1.676
		c11.417-3.748,11.697-1.771,0.549,3.887c-6.689,3.395-13.795,4.905-26.934,5.724c-6.259,0.39-7.717,0.774-7.277,1.921
		c0.414,1.079-0.062,1.308-1.923,0.922c-7.128-1.477-7.991-1.551-6.347-0.546c2.656,1.624,11.861,3.735,19.699,4.52
		c10.27,1.026,15.194-0.529,22.675-7.165c3.828-3.396,8.419-6.275,12.681-7.953c3.806-1.498,8.086-4.079,9.946-5.999
		c3.737-3.855,3.667-3.913-2.241-1.828c-2.401,0.847-3.921,1.124-3.376,0.615c2.223-2.077,17.575-10.405,18.14-9.841
		c0.335,0.336-3.194,4.371-7.844,8.968c-6.745,6.67-9.414,8.628-13.214,9.691c-3.672,1.028-5.286,2.166-7.06,4.975
		c-2.389,3.784-6.539,6.099-14.532,8.105c-3.459,0.869-5.713,2.438-9.749,6.788l-5.249,5.657l-8.251,0.194
		C266.641,792.235,261.578,791.973,259.929,791.546L259.929,791.546z M278.272,789.88c3.494-1.398,6.156-4.667,6.156-7.559
		c0-0.675-4.328-0.783-12.821-0.322c-13.801,0.751-14.698,0.555-19.951-4.352c-1.762-1.646-6.458-4.032-10.927-5.551
		c-9.951-3.381-11.092-3.339-4.72,0.176c2.794,1.541,6.62,3.976,8.5,5.409c5.166,3.939,16.844,6.905,26.691,6.778
		c4.55-0.059,9.05-0.38,10-0.713c1.412-0.496,1.498-0.36,0.474,0.743c-2.01,2.167-19.016,2.551-24.853,0.562l-4.738-1.614
		l2.313,2.462C259.133,790.941,270.771,792.882,278.272,789.88z M262.929,772.779c-2.2-0.854-6.87-2.873-10.377-4.487
		c-3.507-1.615-6.588-2.726-6.847-2.467c-1.072,1.071,15.534,8.382,19.224,8.462C266.029,774.311,265.128,773.633,262.929,772.779
		L262.929,772.779z M325.928,745.436c-0.912,1.475,2.051,1.212,6.283-0.556c7.759-3.241,11.307-9.215,7.646-12.876
		c-1.429-1.428-1.338-1.57,1-1.57c2.179,0,2.571,0.448,2.571,2.94c0,4.259,1.438,4.515,4.567,0.812
		c4.406-5.214,6.625-11.304,6.786-18.632c0.186-8.396-1.759-8.905-5.354-1.404c-2.906,6.064-7.27,10.753-22.75,24.448
		c-6.188,5.474-11.25,10.399-11.25,10.946c0,0.546,2.501-0.379,5.558-2.057S326.267,744.887,325.928,745.436z M277.429,732.95
		c0-0.266-2.295-1.646-5.1-3.066c-2.805-1.422-4.855-2.829-4.556-3.128c0.299-0.299,3.054,0.246,6.122,1.212
		c3.068,0.965,5.803,1.529,6.079,1.254c0.275-0.275-2.094-1.316-5.265-2.313c-8.274-2.604-5-2.946,4.308-0.451
		c10.006,2.681,21.691,4.906,22.662,4.314c2.851-1.736-2.23-8.338-6.418-8.338c-1.663,0-4.362-0.788-5.999-1.75
		c-2.508-1.476-2.886-2.202-2.404-4.625c0.314-1.582,0.571-3.594,0.571-4.473c0-1.287,0.42-1.178,2.167,0.57
		c1.767,1.767,1.939,2.443,0.933,3.655c-1.014,1.222-0.82,1.755,1.083,2.987c2.107,1.363,3.459,1.774,10.567,3.216
		c1.422,0.288,2.25,1.185,2.25,2.438c0,2.493,3.332,2.632,8.974,0.375c4.306-1.724,4.495-3.394,0.384-3.394
		c-1.576,0-2.366-0.47-2.104-1.25c0.23-0.688,1.145-1.256,2.03-1.263s3.052-1.356,4.813-3l3.203-2.987l-1.848,3.219
		c-1.016,1.771-1.575,3.491-1.242,3.824c2.151,2.151,13.581-9.04,12.394-12.136c-0.808-2.104,1.229-5.686,2.875-5.055
		c1.388,0.532,2.483-2.142,2.508-6.122c0.012-1.926-0.366-2.174-2.496-1.639c-1.827,0.458-3.443-0.081-5.934-1.981
		c-1.883-1.436-4.016-2.618-4.74-2.626c-0.724-0.008-1.98-0.435-2.792-0.949c-1.204-0.761-1.02-1.107,1-1.874
		c1.791-0.681,2.912-0.557,4.055,0.449c0.868,0.764,3.455,1.389,5.75,1.389c4.414,0,5.722,1.562,1.921,2.294
		c-1.383,0.267-0.795,0.486,1.524,0.57c3.192,0.115,3.926-0.26,4.75-2.429c1.564-4.114,1.199-5.435-1.506-5.435
		c-1.771,0-2.611-0.644-2.937-2.25c-0.251-1.238-0.734-3.55-1.073-5.14l-0.617-2.89l-6.49,0.606
		c-5.294,0.495-6.599,0.324-7.078-0.928c-0.324-0.843-0.079-2.043,0.544-2.666s1.133-2.159,1.133-3.414
		c0-2.129-0.316-2.245-4.75-1.75l-4.75,0.53l3.705-2.05c2.849-1.577,3.858-2.87,4.37-5.596c0.806-4.296-0.213-5.668-2.196-2.956
		c-1.25,1.709-1.593,1.78-2.403,0.499c-0.52-0.822-0.952-2.256-0.96-3.186c-0.029-3.206-1.826-2.796-4.13,0.942l-2.31,3.749
		l-0.538-3.765l-0.538-3.764l-3,4.764l-3,4.765l-0.296-6.75c-0.163-3.712-0.661-6.75-1.107-6.75c-0.447,0-3.307,2.7-6.357,6
		c-3.049,3.3-6.074,6-6.722,6c-0.854,0-0.986-1.786-0.481-6.5c0.412-3.842,0.316-6.5-0.234-6.5c-0.512,0-2.468,2.052-4.347,4.559
		c-3.667,4.895-5.123,4.487-2.531-0.709c0.871-1.746,1.344-3.414,1.051-3.707s-3.74,2.593-7.66,6.413l-7.127,6.945l2.744-4.829
		c1.509-2.656,2.491-5.082,2.182-5.391s-3.607,1.54-7.328,4.109c-6.944,4.795-8.905,4.75-5.529-0.125
		c3.777-5.455,3.451-5.691-1.399-1.015c-2.709,2.612-5.258,4.75-5.663,4.75s0.205-1.844,1.354-4.097
		c1.149-2.253,1.905-4.281,1.68-4.507c-0.226-0.226-2.989,2.293-6.141,5.597s-5.9,6.007-6.108,6.007s0.299-1.621,1.127-3.602
		c1.174-2.809,1.218-3.51,0.199-3.182c-1.653,0.532-8.413,10.468-9.372,13.776c-0.661,2.281-0.575,2.37,1.019,1.047
		c1.532-1.271,1.855-1.241,2.694,0.258c0.524,0.937,1.831,1.703,2.903,1.703c1.072,0,1.95,0.395,1.95,0.877
		c0,1.818-3.439,3.623-6.905,3.623h-3.595l0.062,4.728c0.034,2.601,0.339,5.006,0.678,5.345s2.01,0.311,3.711-0.063
		c2.238-0.492,3.625-1.72,5.011-4.437c1.473-2.887,3.119-4.256,7.11-5.915c2.856-1.188,6.159-2.159,7.338-2.159
		c2.45,0,6.589,2.605,6.589,4.146c0,0.568,0.958,1.809,2.129,2.757c2.304,1.866,3.661,9.815,2.479,14.524
		c-1.23,4.902-9.982,6.984-18.922,4.501c-4.649-1.291-7.557-4.039-8.322-7.864c-0.752-3.761-5.363-5.093-5.363-1.548
		c0,1.231,0.675,3.854,1.5,5.829c2.484,5.946,1.676,5.519-2.073-1.096c-1.949-3.438-4.006-6.25-4.573-6.25
		c-2.226,0,1.993,16.798,4.806,19.132c1.314,1.091,1.977,0.763,4.36-2.157l2.81-3.442l1.263,2.772
		c0.695,1.524,1.809,2.563,2.475,2.307c0.718-0.275,1.456,0.755,1.81,2.528c0.329,1.646,0.98,2.757,1.447,2.468
		c1-0.618,5.175,2.109,5.175,3.383c0,0.482-1.238,1.025-2.75,1.208c-2.725,0.328-2.713,0.352,1.25,2.509l4,2.178l-3.75-0.573
		c-4.758-0.728-4.799,0.56-0.15,4.642c4.459,3.915,8.659,3.938,8.876,0.047c0.077-1.375,1.319-4.203,2.76-6.283
		c1.44-2.08,2.804-4.33,3.029-5c0.311-0.924,0.81-0.887,2.072,0.155c2.38,1.965,2.061,3.638-1.087,5.688
		c-6.888,4.483-7.059,8.312-0.5,11.163C276.243,733.53,277.429,733.93,277.429,732.95L277.429,732.95z M295.429,715.434
		c-1.169-0.756-0.893-0.974,1.25-0.985c1.517-0.008,2.757-0.575,2.765-1.265c0.01-0.858,0.304-0.795,0.934,0.201
		C302.134,716.161,298.732,717.569,295.429,715.434L295.429,715.434z M312.003,714.766c-0.352-0.917-0.175-2.132,0.393-2.7
		c0.711-0.71,1.033-0.189,1.033,1.667C313.429,716.819,312.929,717.18,312.003,714.766z M313.245,707.721
		c-0.264-2.257-1.071-2.934-4.816-4.037c-2.475-0.729-6.3-1.583-8.5-1.898c-5.333-0.763-5.395-1.025-0.44-1.862
		c3.593-0.607,5.134-0.227,10.745,2.651c7.18,3.682,8.348,5.172,5.322,6.792C313.812,710.299,313.521,710.092,313.245,707.721z
		 M243.553,713.534l2.346-1.899l-2.485-2.067c-2.992-2.488-4.84-2.676-5.648-0.57c-0.682,1.777,1.151,6.437,2.531,6.437
		C240.797,715.433,242.263,714.579,243.553,713.534L243.553,713.534z M354.778,705.964c0.277-0.723,0.347-2.15,0.154-3.172
		c-0.193-1.022-0.432-2.533-0.53-3.357c-0.098-0.825-0.548-0.15-1,1.5c-0.452,1.65-1.136,4.019-1.519,5.264
		c-0.549,1.786-0.37,2.141,0.847,1.674C353.579,707.546,354.501,706.687,354.778,705.964z M260.6,687.779
		c1.005-0.91,1.829-2.17,1.829-2.801c0-2.396-2.589-6.49-4.717-7.46c-1.805-0.823-2.78-0.537-5.25,1.542
		c-3.358,2.825-3.939,6.326-1.462,8.803C253.056,689.918,258.286,689.872,260.6,687.779L260.6,687.779z M339.253,675.304
		c-4.079-2.586-5.315,1.639-1.574,5.379l2.25,2.25l0.324-3.395C340.448,677.497,340.049,675.809,339.253,675.304z M330.56,669.964
		c3.441-1.594,5.674-2.125,6.3-1.5c3.017,3.017,2.698-2.119-0.616-9.922c-2.054-4.836-2.337-4.8-4.955,0.644l-1.802,3.748l0.473-5
		l0.473-5l-1.425,3.5c-1.319,3.238-1.432,3.307-1.502,0.917c-0.119-4.054-1.206-4.189-3.737-0.464
		c-2.955,4.348-2.933,5.182,0.161,5.958c2.83,0.71,3.059,1.988,1,5.589C322.176,673.25,322.99,673.471,330.56,669.964
		L330.56,669.964z M207.057,739.29c-1.069-1.991-1.659-4.779-1.451-6.856c0.342-3.409,0.397-3.349,2.141,2.339
		C209.886,741.754,209.552,743.94,207.057,739.29L207.057,739.29z M175.699,637.829c0.333-0.332,1.195-0.368,1.917-0.079
		c0.797,0.319,0.561,0.556-0.604,0.604C175.958,638.398,175.367,638.162,175.699,637.829L175.699,637.829z M299.929,622.729
		c-1.908-1.034-2.507-1.79-1.646-2.078c0.745-0.249,2.307,0.5,3.472,1.665C304.267,624.827,303.94,624.901,299.929,622.729z
		 M344.429,618.555c0-0.483-2.7-1.888-6-3.122c-3.3-1.234-6-2.589-6-3.01c0-1.408,7.393-2.26,18.198-2.097
		c11.289,0.171,21.888-1.566,18.248-2.991c-1.07-0.419-3.521-0.801-5.446-0.848c-1.925-0.048-5.3-1.18-7.5-2.516
		c-2.2-1.335-5.575-3.171-7.5-4.079l-3.5-1.65l2.5-1.091c3.037-1.326,70.55-1.631,85.5-0.386c12.523,1.043,28.019,0.897,36.5-0.342
		c3.575-0.522,7.85-0.902,9.5-0.844c2.926,0.104,2.907,0.132-0.75,1.156c-2.063,0.577-3.75,1.337-3.75,1.688
		s8.438,0.499,18.75,0.329c18.245-0.3,18.643-0.264,14.75,1.346c-3.303,1.366-9.057,1.735-33,2.12
		c-16.135,0.259-28.113,0.822-27,1.27c1.1,0.442,4.925,0.865,8.5,0.938c5.451,0.112,6.097,0.298,4,1.15
		c-1.541,0.627-11.959,0.89-27.158,0.687c-13.562-0.181-25.02,0.027-25.461,0.464s0.529,1.918,2.158,3.292l2.961,2.498l-4.347-2.112
		c-5.164-2.509-6.387-1.914-3.149,1.532c2.954,3.144,2.192,3.136-4.084-0.044l-5.014-2.541l1.572,3.041
		c1.911,3.694,1.118,3.81-3.693,0.541c-4.448-3.023-5.188-3.121-3.785-0.5c1.373,2.565,1.093,2.52-2.987-0.491
		c-3.226-2.379-3.462-2.413-5.302-0.75c-1.06,0.957-2.827,1.591-3.928,1.409c-1.146-0.189-1.737,0.097-1.384,0.669
		c0.73,1.181-3.164,2.548-13.215,4.64C355.617,619.575,344.429,619.951,344.429,618.555L344.429,618.555z M471.106,616.778
		c-0.27-0.236-6.596-1.297-11.902-1.995c-8.556-1.125-4.149-1.933,10.905-2c8.15-0.036,12.802,0.127,10.335,0.362l-4.484,0.427
		l2.484,1.926l2.484,1.925l-4.822-0.245C473.453,617.044,471.203,616.863,471.106,616.778L471.106,616.778z M280.997,592.544
		c-0.302-0.489-1.667-1.169-3.033-1.512c-1.366-0.343-4.133-1.743-6.149-3.111c-2.932-1.99-4.909-2.488-9.875-2.488
		c-5.283,0-7.241-0.56-13.111-3.75l-6.9-3.75l-11.5,0.137c-6.325,0.076-13.513,0.613-15.973,1.194
		c-7.416,1.752-5.684,0.552,3.196-2.216c11.634-3.625,17.168-3.975,42.277-2.667c42.246,2.199,59.874,2.336,83,0.646
		c12.1-0.885,25.6-2.071,30-2.637c34.855-4.48,55.659-5.685,69.187-4.007c5.947,0.738,11.785,1.457,12.974,1.599
		c1.188,0.141,7.714,1.186,14.5,2.322c41.903,7.015,48.472,7.72,56.364,6.052c3.286-0.694,10.7-1.315,16.476-1.379
		c6.509-0.072,11.388-0.609,12.836-1.411c1.284-0.712,2.507-1.123,2.717-0.913s-2.261,1.709-5.489,3.331
		c-3.229,1.622-5.663,3.287-5.408,3.699c0.254,0.413,2.124,0.757,4.153,0.766c7.724,0.032,6.489,1.733-2.194,3.025
		c-7.201,1.071-9.063,1.056-11.363-0.092c-1.94-0.969-7.173-1.398-17.751-1.456c-9.368-0.051-18.191-0.693-23.5-1.708
		c-16.986-3.251-26.465-4.188-31.11-3.076l-4.39,1.051l4.5,0.184c4.114,0.168,4.286,0.272,2,1.221
		c-1.639,0.679-10.256,0.812-25,0.385c-16.547-0.479-24.484-0.308-30,0.65c-4.349,0.754-12.333,1.151-19,0.945
		c-29.005-0.9-54.98-0.582-65.747,0.807c-8.789,1.133-13.379,1.223-21,0.408c-9.852-1.052-23.357-0.385-18.253,0.902
		c1.375,0.347,4.679,0.914,7.342,1.26c2.663,0.347,4.623,0.849,4.355,1.116c-0.268,0.267-3.338,0.889-6.824,1.382
		c-3.678,0.52-6.811,1.543-7.466,2.439C284.601,593.581,281.866,593.95,280.997,592.544L280.997,592.544z"/>
</g>
</svg>
